<?xml version="1.0" encoding="UTF-8"?>
<svg width="64px" height="62px" viewBox="0 0 64 62" version="1.1" xmlns="http://www.w3.org/2000/svg" xmlns:xlink="http://www.w3.org/1999/xlink">
    <title>Group 40</title>
    <defs>
        <linearGradient x1="0%" y1="4.97657284%" x2="102.599928%" y2="101.237591%" id="linearGradient-1">
            <stop stop-color="#FF595A" offset="0%"></stop>
            <stop stop-color="#FF7904" offset="100%"></stop>
        </linearGradient>
    </defs>
    <g id="Final" stroke="none" stroke-width="1" fill="none" fill-rule="evenodd">
        <g id="Book-Demo-Class---Web-/-Counselling" transform="translate(-885.000000, -850.000000)">
            <g id="Group-40" transform="translate(885.000000, 850.000000)">
                <g id="profit" transform="translate(0.500000, 0.400000)">
                    <path d="M1.215972,49.414779 C1.3781745,49.414779 1.5431715,49.381974 1.701486,49.312962 L54.8172765,26.125659 L53.7692175,28.793313 C53.5237875,29.4177015 53.831304,30.123009 54.455814,30.3683175 C55.0804455,30.613869 55.7856315,30.3063525 56.03094,29.681721 L58.1519655,24.28299 C58.264596,23.9973435 58.269456,23.6692935 58.140909,23.3650575 C58.1390865,23.3606835 58.137264,23.356431 58.13532,23.352057 C58.1330115,23.3468325 58.1305815,23.3414865 58.128273,23.336262 C57.9920715,23.035428 57.7478565,22.8163635 57.4616025,22.705191 L52.062021,20.585259 C51.4373895,20.340072 50.732325,20.6475885 50.487138,21.27222 C50.2418295,21.89673 50.5494675,22.601916 51.174099,22.847103 L53.8486785,23.8969845 L0.729243,47.0859885 C0.11421,47.3545035 -0.166698,48.0706245 0.101817,48.685536 C0.3011985,49.142376 0.747468,49.414779 1.215972,49.414779 L1.215972,49.414779 Z" id="Path" fill="#222222" fill-rule="nonzero"></path>
                    <path d="M60.9923925,58.562757 L53.886708,58.562757 L53.886708,36.087444 C53.886708,35.416521 53.3427525,34.872444 52.671708,34.872444 L45.938664,34.872444 C45.2676195,34.872444 44.723664,35.4163995 44.723664,36.087444 L44.723664,58.562757 L41.216445,58.562757 L41.216445,40.8226635 C41.216445,40.1517405 40.6724895,39.6076635 40.001445,39.6076635 L33.268401,39.6076635 C32.5973565,39.6076635 32.053401,40.151619 32.053401,40.8226635 L32.053401,58.562757 L29.3484465,58.562757 L29.3484465,45.561528 C29.3484465,44.890605 28.804491,44.346528 28.1334465,44.346528 L21.403926,44.346528 C20.7328815,44.346528 20.188926,44.8904835 20.188926,45.561528 L20.188926,58.5628785 L17.48385,58.5628785 L17.48385,50.2969905 C17.48385,49.6260675 16.9398945,49.0819905 16.26885,49.0819905 L9.5359275,49.0819905 C8.864883,49.0819905 8.3209275,49.625946 8.3209275,50.2969905 L8.3209275,58.5628785 L1.2153645,58.5628785 C0.54432,58.5628785 0.0003645,59.106834 0.0003645,59.7778785 C0.0003645,60.448923 0.54432,60.9928785 1.2153645,60.9928785 L60.992514,60.9928785 C61.6635585,60.9928785 62.207514,60.448923 62.207514,59.7778785 C62.207514,59.106834 61.663437,58.562757 60.9923925,58.562757 Z M47.1537855,37.302444 L51.4568295,37.302444 L51.4568295,58.562757 L47.1537855,58.562757 L47.1537855,37.302444 Z M34.483401,42.0376635 L38.786445,42.0376635 L38.786445,58.562757 L34.483401,58.562757 L34.483401,42.0376635 Z M22.618926,46.7764065 L26.9184465,46.7764065 L26.9184465,58.562757 L22.618926,58.562757 L22.618926,46.7764065 Z M10.7509275,51.511869 L15.05385,51.511869 L15.05385,58.5628785 L10.7509275,58.5628785 L10.7509275,51.511869 Z" id="Shape" fill="#222222" fill-rule="nonzero"></path>
                    <path d="M37.7628075,6.076944 L53.1332865,6.076944 C53.804331,6.076944 54.3482865,5.5329885 54.3482865,4.861944 C54.3482865,4.1908995 53.804331,3.646944 53.1332865,3.646944 L37.7628075,3.646944 C37.091763,3.646944 36.5478075,4.1908995 36.5478075,4.861944 C36.5478075,5.5329885 37.091763,6.076944 37.7628075,6.076944 L37.7628075,6.076944 Z" id="Path" fill="#222222" fill-rule="nonzero"></path>
                    <path d="M37.7628075,11.862774 L49.4860995,11.862774 C50.157144,11.862774 50.7010995,11.3188185 50.7010995,10.647774 C50.7010995,9.976851 50.157144,9.432774 49.4860995,9.432774 L37.7628075,9.432774 C37.091763,9.432774 36.5478075,9.9767295 36.5478075,10.647774 C36.5478075,11.318697 37.091763,11.862774 37.7628075,11.862774 Z" id="Path" fill="#222222" fill-rule="nonzero"></path>
                    <path d="M37.7628075,17.648361 L45.842436,17.648361 C46.5134805,17.648361 47.057436,17.1044055 47.057436,16.433361 C47.057436,15.762438 46.5134805,15.218361 45.842436,15.218361 L37.7628075,15.218361 C37.091763,15.218361 36.5478075,15.7623165 36.5478075,16.433361 C36.5478075,17.104284 37.091763,17.648361 37.7628075,17.648361 L37.7628075,17.648361 Z" id="Path" fill="#222222" fill-rule="nonzero"></path>
                    <path d="M16.5168315,33.032934 C20.9294685,33.032934 25.0774785,31.3150455 28.196991,28.195776 C30.6091305,25.783758 32.1949485,22.7386035 32.78313,19.3895775 C33.3579465,16.116732 32.9470335,12.7899405 31.594617,9.769086 C31.320513,9.1566045 30.601962,8.882136 29.9892375,9.1566045 C29.376756,9.4307085 29.1025305,10.1495025 29.3766345,10.7618625 C31.747464,16.0578045 30.5828865,22.373496 26.4786165,26.4774015 C23.8182525,29.137887 20.280294,30.602934 16.5168315,30.602934 C12.7532475,30.602934 9.2154105,29.137887 6.5550465,26.4774015 C1.0630035,20.9856015 1.0630035,12.0497625 6.5550465,6.557841 C10.6590735,2.454057 16.9765875,1.2882645 22.275324,3.6567855 C22.887927,3.930768 23.6065995,3.6560565 23.880339,3.0434535 C24.1540785,2.4308505 23.87961,1.7122995 23.267007,1.43856 C20.245302,0.0878445 16.918632,-0.322461 13.6462725,0.251991 C10.296153,0.8404155 7.249905,2.426841 4.8367935,4.8397095 C-1.6027065,11.2789665 -1.6027065,21.756519 4.8367935,28.195776 C7.9561845,31.3150455 12.104316,33.032934 16.5168315,33.032934 Z" id="Path" fill="#222222" fill-rule="nonzero"></path>
                    <circle id="Oval" fill-opacity="0.08" fill="url(#linearGradient-1)" cx="16" cy="17.1" r="13.5"></circle>
                    <path d="M22.8872186,12.0379865 C22.4991096,11.5972243 21.6729917,10.4837981 21.2586901,11.3611786 C20.2692988,13.4622172 18.8768858,16.4422939 17.8203879,18.4806743 C16.7784203,18.1622447 15.6821556,18.3107678 15.0443566,18.5570907 C14.2079147,16.7091713 12.8095749,13.3713794 11.9228509,11.3124445 C11.5836856,10.5252387 10.6954321,11.4394185 10.1316224,11.7250271 C9.8972275,11.843713 9.98689407,11.6151266 10.3132498,12.3254186 C12.1322004,16.1667967 13.4575068,19.8182112 15.5879005,23.5440529 C15.9570821,24.1913552 16.9946525,24.1298573 17.3122136,23.4837154 C19.1866083,19.6731691 20.7053957,16.5407567 22.6845607,12.6005842 C23.0764935,11.8183513 23.0516392,12.2266242 22.8872186,12.0379865 Z" id="Path" fill="url(#linearGradient-1)"></path>
                    <path d="M27.3378645,6.913836 C27.648783,6.913836 27.959823,6.7951305 28.196991,6.5579625 C28.6714485,6.083505 28.6714485,5.314167 28.196991,4.8397095 L28.193589,4.8363075 C27.71901,4.36185 26.9514945,4.3636725 26.477037,4.83813 C26.0025795,5.3125875 26.0042805,6.0836265 26.478738,6.558084 C26.715906,6.7951305 27.026946,6.913836 27.3378645,6.913836 L27.3378645,6.913836 Z" id="Path" fill="#222222" fill-rule="nonzero"></path>
                </g>
            </g>
        </g>
    </g>
</svg>